<svg version="1.2" xmlns="http://www.w3.org/2000/svg" viewBox="0 0 166 106" width="166" height="106"><style>.a{fill:#fff}</style><path  d="m152.4 0q0.7 0 1.4 0c1.1 0.1 2.1 0.1 3.1 0.3 1.1 0.2 2.1 0.5 3 1q1.4 0.7 2.5 1.8 1.1 1.1 1.8 2.5c0.5 1 0.8 1.9 1 3 0.2 1 0.3 2.1 0.3 3.1q0 0.7 0 1.4 0 0.9 0 1.7v76.3q0 0.9 0 1.7 0 0.8 0 1.5c0 1-0.1 2.1-0.3 3.1-0.2 1-0.5 2-1 2.9q-0.7 1.4-1.8 2.6-1.1 1.1-2.5 1.8c-0.9 0.5-1.9 0.8-3 1-1 0.2-2 0.2-3.1 0.2q-0.7 0.1-1.4 0.1-0.9 0-1.7 0h-135.9q-0.8 0-1.7 0-0.7 0-1.4-0.1c-1 0-2.1 0-3.1-0.2-1.1-0.2-2-0.5-3-1q-1.4-0.7-2.5-1.8-1.1-1.2-1.8-2.6c-0.5-0.9-0.8-1.9-1-2.9-0.2-1-0.2-2.1-0.3-3.1q0-0.7 0-1.5 0-0.8 0-1.7v-76.3q0-0.8 0-1.7 0-0.7 0-1.4c0.1-1 0.1-2.1 0.3-3.1 0.2-1.1 0.5-2 1-3q0.7-1.4 1.8-2.5 1.1-1.1 2.5-1.8c1-0.5 1.9-0.8 3-1 1-0.2 2.1-0.2 3.1-0.3q0.7 0 1.4 0 0.9 0 1.7 0h135.9q0.8 0 1.7 0z"/><path class="a" d="m150.7 3.5h1.7q0.6 0 1.3 0.1c0.8 0 1.7 0 2.6 0.2 0.8 0.1 1.4 0.3 2 0.6q0.9 0.5 1.6 1.2 0.7 0.7 1.2 1.6c0.3 0.6 0.5 1.3 0.6 2 0.2 0.9 0.2 1.8 0.3 2.6q0 0.7 0 1.4 0 0.8 0 1.6v76.3q0 0.9 0 1.7 0 0.7 0 1.4c-0.1 0.8-0.1 1.7-0.3 2.6-0.1 0.7-0.3 1.3-0.6 1.9q-0.5 0.9-1.2 1.7-0.7 0.7-1.6 1.1c-0.6 0.4-1.2 0.6-2 0.7-0.9 0.1-1.8 0.2-2.6 0.2q-0.6 0-1.3 0-0.9 0-1.7 0h-135.9q0 0 0 0-0.8 0-1.7 0-0.6 0-1.3 0c-0.8 0-1.7-0.1-2.6-0.2-0.7-0.1-1.4-0.3-2-0.7q-0.9-0.4-1.6-1.1-0.7-0.8-1.2-1.7c-0.3-0.6-0.5-1.2-0.6-1.9-0.2-0.9-0.2-1.8-0.2-2.6q-0.1-0.7-0.1-1.4v-1.3-0.4-76.3-0.3-1.4q0-0.6 0.1-1.3c0-0.8 0-1.7 0.2-2.6 0.1-0.7 0.3-1.4 0.6-2q0.5-0.9 1.2-1.6 0.7-0.7 1.6-1.2c0.6-0.3 1.3-0.5 2-0.6 0.9-0.2 1.8-0.2 2.6-0.2q0.7-0.1 1.3-0.1h1.7z"/><path  d="m39.1 38.5c-0.3-2.3 0.8-4.8 2.1-6.3 1.5-1.8 4-3 6.1-3.1 0.3 2.4-0.7 4.8-2.1 6.5-1.5 1.8-3.8 3.1-6.1 2.9z"/><path  d="m54.8 43.1c-0.2 0.1-4.5 2.6-4.4 7.8 0 6.2 5.4 8.3 5.5 8.3-0.1 0.2-0.9 3-2.9 5.8-1.7 2.6-3.4 5-6.3 5.1-2.7 0-3.6-1.6-6.7-1.6-3.2 0-4.2 1.5-6.7 1.6-2.8 0.1-4.8-2.6-6.6-5.2-3.5-5.1-6.2-14.4-2.5-20.6 1.7-3.1 5-5.1 8.4-5.2 2.7 0 5.2 1.8 6.8 1.8 1.6 0 4.5-2.1 7.9-1.9 1.3 0.1 5.1 0.5 7.5 4.1z"/><path fill-rule="evenodd" d="m76.7 31.9c7.4 0 12.5 5.1 12.5 12.5 0 7.4-5.2 12.5-12.7 12.5h-8.1v12.9h-5.9v-37.9zm-8.3 20h6.8c5.1 0 8-2.7 8-7.5 0-4.8-2.9-7.5-8-7.5h-6.8z"/><path fill-rule="evenodd" d="m90.7 62c0-4.9 3.7-7.8 10.3-8.2l7.6-0.4v-2.2c0-3-2.1-4.9-5.6-4.9-3.3 0-5.3 1.6-5.8 4.1h-5.4c0.4-5 4.6-8.7 11.4-8.7 6.7 0 11 3.6 11 9.1v19h-5.4v-4.5h-0.2c-1.6 3.1-5 5-8.7 5-5.4 0-9.2-3.4-9.2-8.3zm17.9-2.5v-2.2l-6.8 0.4c-3.4 0.3-5.3 1.8-5.3 4.1 0 2.4 2 4 5 4 4 0 7.1-2.7 7.1-6.3z"/><path  d="m119.3 80v-4.6c0.5 0.1 1.4 0.1 1.9 0.1 2.6 0 4-1.1 4.9-3.9 0-0.1 0.5-1.7 0.5-1.7l-10-27.7h6.2l6.9 22.5h0.1l7-22.5h6l-10.3 29.1c-2.4 6.7-5.1 8.8-10.8 8.8-0.5 0-1.9 0-2.4-0.1z"/></svg>