<svg version="1.2" xmlns="http://www.w3.org/2000/svg" viewBox="0 0 316 316" width="316" height="316"><style>.a{fill:#32bcad}</style><path class="a" d="m251.9 241.6l-60.1 60.1c-4.4 4.4-9.7 8-15.5 10.4-5.9 2.4-12.1 3.6-18.4 3.6-6.3 0-12.5-1.2-18.3-3.6-5.9-2.4-11.1-6-15.6-10.4l-60-60h9.3q4.5 0 9-0.9 4.5-0.9 8.7-2.6 4.2-1.8 8-4.3 3.8-2.5 7.1-5.8l47.5-47.5q1.2-1.2 2.8-1.8 1.6-0.7 3.4-0.7 1.7 0 3.3 0.7 1.6 0.6 2.9 1.8l47.3 47.4q3.3 3.2 7.1 5.8 3.8 2.5 8 4.2 4.2 1.8 8.7 2.7 4.5 0.8 9 0.8z"/><path class="a" d="m64 74.1l59.9-60c4.5-4.4 9.7-7.9 15.6-10.4 5.8-2.4 12-3.6 18.3-3.6 6.3 0 12.5 1.2 18.4 3.6 5.8 2.5 11.1 6 15.5 10.4l60.1 60.2h-5.7q-4.5-0.1-9 0.8-4.5 0.9-8.7 2.7-4.2 1.7-8 4.3-3.8 2.5-7.1 5.7l-47.3 47.4c-0.8 0.8-1.8 1.4-2.8 1.9-1.1 0.4-2.3 0.7-3.4 0.7-1.2 0-2.3-0.3-3.4-0.7-1-0.5-2-1.1-2.8-1.9l-47.5-47.5q-3.3-3.3-7.1-5.8-3.8-2.6-8-4.3-4.2-1.8-8.7-2.6-4.5-0.9-9-0.9z"/><path class="a" d="m312 139.5c2.4 5.9 3.6 12.1 3.6 18.4 0 6.3-1.2 12.5-3.6 18.3-2.5 5.9-6 11.1-10.4 15.6l-36.4 36.3q-0.3-0.1-0.6-0.2-0.3-0.1-0.6-0.2-0.4 0-0.7-0.1-0.3 0-0.6 0h-16.6q-3.2 0-6.3-0.6-3.1-0.7-6.1-1.9-2.9-1.2-5.6-3-2.6-1.7-4.9-4l-47.3-47.3c-8.6-8.6-23.6-8.6-32.2 0l-47.5 47.5q-2.3 2.2-4.9 4-2.7 1.8-5.6 3-3 1.2-6.1 1.9-3.1 0.6-6.3 0.6h-20.4q-0.3 0-0.6 0-0.3 0.1-0.6 0.1-0.3 0.1-0.6 0.2-0.3 0.1-0.6 0.2l-36.5-36.5c-4.4-4.4-8-9.7-10.4-15.5-2.4-5.9-3.6-12.1-3.6-18.4 0-6.3 1.2-12.5 3.6-18.3 2.4-5.9 6-11.1 10.4-15.6l36.6-36.5q0.3 0.1 0.6 0.2 0.3 0.1 0.6 0.2 0.3 0 0.6 0.1 0.3 0 0.6 0h20.3q3.2 0 6.3 0.6 3.1 0.7 6.1 1.9 2.9 1.2 5.6 3 2.6 1.8 4.9 4l47.5 47.5c2.1 2.1 4.6 3.8 7.4 4.9 2.8 1.2 5.7 1.7 8.7 1.7 3 0 5.9-0.5 8.7-1.7 2.7-1.1 5.2-2.8 7.4-4.9l47.3-47.3q2.3-2.3 4.9-4 2.7-1.8 5.6-3 3-1.2 6.1-1.9 3.1-0.6 6.3-0.6h16.6q0.3 0 0.6 0 0.3-0.1 0.7-0.1 0.3-0.1 0.6-0.2 0.3-0.1 0.6-0.2l36.4 36.3c4.4 4.4 7.9 9.7 10.4 15.5z"/></svg>